<svg width="90" height="78" viewBox="0 0 90 78" fill="none" xmlns="http://www.w3.org/2000/svg">
<path d="M89.9798 21.5774C89.9798 21.5677 89.9809 21.5579 89.9809 21.5482C89.9809 9.71581 80.3891 0.124023 68.5567 0.124023C56.7243 0.124023 47.1327 9.71563 47.1327 21.5482C47.1327 33.3808 56.7254 42.9724 68.5569 42.9724C70.9886 42.9724 73.3163 42.5484 75.4944 41.8016C70.6743 69.4529 49.1115 87.2852 69.1 72.6089C91.2645 56.3344 90.0046 22.2019 89.9798 21.5774Z" fill="white"/>
<path d="M21.4242 42.9722C23.8559 42.9722 26.1837 42.5483 28.3628 41.8014C23.5415 69.4527 1.97859 87.285 21.9673 72.6087C44.1318 56.3344 42.8721 22.2019 42.8471 21.5774C42.8471 21.5677 42.8482 21.5579 42.8482 21.5482C42.8482 9.71581 33.2566 0.124023 21.4242 0.124023C9.59161 0.124023 0 9.71563 0 21.5482C0 33.3807 9.59267 42.9722 21.4242 42.9722Z" fill="white"/>
</svg>
